<svg width="992" height="440" viewBox="0 0 992 440" fill="none" xmlns="http://www.w3.org/2000/svg">
<path d="M631.6 129.1C623.5 130.4 616.9 137.3 615.6 145.9C615.4 147.7 614.3 150.2 613.2 151.4C608.5 156.6 607.7 161 611.5 161C613.2 161 614.4 161.7 615 163.2L615.9 165.5V163.3C616 162.1 616.3 160.5 616.6 159.6C617.5 157.2 626.3 152 632.9 150C638.5 148.3 639.1 148.3 643.7 149.9C654.4 153.7 656.4 155.2 657.6 159.9C658.9 165.3 660.1 165.9 662.4 162.5C664.3 159.7 663.8 152.7 661.3 145.5C656.9 132.9 645.8 126.8 631.6 129.1Z" fill="#E47F7F"/>
<path d="M645.5 160.7C644.4 161 643.1 161.6 642.5 162.2C641.8 162.8 642.5 162.9 644.5 162.4C646.2 162 647.7 161.6 647.9 161.4C648.1 161.2 649.7 161.8 651.4 162.6C654 164 654.3 164 653 162.7C651.2 160.9 648.2 160.1 645.5 160.7Z" fill="#E47F7F"/>
<path d="M620.4 162.6C618.6 164 618.6 164.1 620.9 163C622.2 162.3 624.5 162 626.1 162.2C627.7 162.5 629 162.3 629 161.8C629 160.4 622.5 160.9 620.4 162.6Z" fill="#E47F7F"/>
<path d="M618.3 167.1C615.2 168 615.2 168.1 616.2 171.8C617.6 177.1 619.7 179 624 179C628.9 179 631.1 177.1 631.9 172.4C632.5 168.7 632.7 168.5 636.5 168.2C640.5 167.9 640.5 168 642 172.7C643.1 176.3 644.3 177.9 646.4 178.9C651.2 181.2 655.1 178.2 657.4 170.3C658 168.4 657.6 167.9 654.1 166.9C651.7 166.2 648.7 166 646.3 166.5C642.5 167.3 634.4 167.3 626 166.5C623.5 166.3 620.1 166.5 618.3 167.1ZM628.8 167.6C631.5 168.4 631.8 172.4 629.4 175.8C628.3 177.4 626.9 178 624 178C619.9 178 618.9 177 617.6 171.7C617.1 169.4 617.4 168.8 619.2 168C621.9 167 625.6 166.8 628.8 167.6ZM653.8 167.6C656.4 168.3 656.6 170.8 654.5 175C651.5 180.8 643.5 178.4 642.8 171.6C642.6 169.2 643 168.5 645 167.9C648.3 167 651 166.9 653.8 167.6Z" fill="#E47F7F"/>
<path d="M624 172.1C624 173.2 624.5 173.8 625 173.5C625.6 173.2 626 172.2 626 171.4C626 170.6 625.6 170 625 170C624.5 170 624 170.9 624 172.1Z" fill="#E47F7F"/>
<path d="M648 171.4C648 172.2 648.5 173.2 649 173.5C649.6 173.8 650 173.2 650 172.1C650 170.9 649.6 170 649 170C648.5 170 648 170.6 648 171.4Z" fill="#E47F7F"/>
<path d="M875.5 174.2C872 185.4 867.3 202.7 867.7 203.3C868.5 204.6 870.2 202.8 872.1 198.4C874.7 192.5 880 174.8 879.4 173.8C878.6 172.5 876 172.9 875.5 174.2Z" fill="#E47F7F"/>
<path d="M635.7 175.9C635.3 177.6 635.4 178 636.2 177.2C636.7 176.7 637 175.6 636.8 174.9C636.5 174.1 636.1 174.6 635.7 175.9Z" fill="#E47F7F"/>
<path d="M801.6 182.7C798.3 187.8 794.9 198.2 794.2 205.3C793.9 208.8 792.9 212.4 791.6 214.2C788.8 218.3 787 218.9 787 215.6C787 213.7 787.5 213 788.9 213C791.3 213 791.6 212.5 792.5 207.9C793.2 204.1 791.4 201 788.4 201C784.3 201 780.6 214.2 783.5 218.6C785.8 222.1 789.9 221.5 792 217.5C792.8 215.8 793.6 214.3 793.8 214C794 213.7 794.6 214.3 795.1 215.3C796.4 217.5 800.2 217.5 802.3 215.2C803.2 214.2 804.2 211.8 804.6 209.9L805.1 206.5L802.9 210.3C801.6 212.3 800.1 213.9 799.5 213.7C797.9 213.1 798.2 208.7 800 206.5C805 200.4 808.2 191.2 807.8 184.3C807.4 178 805.1 177.4 801.6 182.7ZM804 195.2C802.9 198.3 801.3 201.4 800.5 202C799.7 202.7 799 203 799 202.8C799 201.6 802.2 191.7 803.7 188.4C805.3 184.7 805.5 184.6 805.8 187.1C805.9 188.5 805.2 192.2 804 195.2ZM789.1 210.3C787.5 211.9 787.1 210.8 788.3 208C789.2 205.8 789.4 205.7 789.7 207.4C790 208.4 789.7 209.7 789.1 210.3Z" fill="#E47F7F"/>
<path d="M813 183.6C812.3 185.5 812.1 187.4 812.4 187.8C813.3 188.6 816.7 185 817.5 182.2C818 180.4 817.7 180 816.1 180C814.8 180 813.8 181.1 813 183.6Z" fill="#E47F7F"/>
<path d="M935.5 184.9C935.2 185.5 933.8 186 932.4 186C928.9 186 928 189.3 928.1 200.8C928.2 207.7 928.4 209.6 929 207.2C929.4 205.4 929.6 201 929.4 197.4C929.3 193.8 929.4 190.2 929.7 189.4C930.5 187.3 938 187.8 938.1 189.9C938.1 190.8 938.4 191 938.6 190.4C939.3 188.8 936.3 183.6 935.5 184.9Z" fill="#E47F7F"/>
<path d="M841.9 188.6C841.3 190.2 840.2 193.1 839.5 195C838.1 199.1 832.2 206 830.3 206C829.6 206 829 204.9 829 203.4C829 201.4 829.4 201 830.9 201.5C834.3 202.6 837.2 196.3 835.4 191.6C834.6 189.5 831.1 189.6 828.8 191.7C827.1 193.2 827 193.2 827 191.2C827 187.4 824.3 188.8 823.6 192.9C822.9 197.7 819 208 818 208C817.1 208 818.3 201.9 820 197.5C821.2 194.3 820.6 193 818 193C816.7 193 815.8 193.9 815.4 195.7C814.5 200.2 811.9 206.9 810.9 207.5C809.6 208.4 809.8 206.9 812 199.9C814 193.4 813.9 192 811.5 192C809.7 192 806.8 201.7 806.6 208.4C806.5 214.7 808.9 215.9 811.6 210.8C813.3 207.6 813.3 207.6 814.3 209.8C816.1 213.8 818.9 212.5 821.8 206.2L824.4 200.5L825.1 203.8C825.5 205.7 826.2 207.6 826.8 208.2C828.6 210 832.4 208.5 834.6 205.2L836.9 201.9L837.2 204.6C837.7 208.8 839.8 208.7 841.6 204.4C842.5 202.3 844 199.5 845 198.2C846.8 195.9 846.9 195.9 848 197.9C849.3 200.4 851.3 199.7 852.9 196.4C854.3 193.2 854.3 192.7 852.8 193.6C852 194.1 851.9 193.8 852.4 192.4C854.3 187.9 854.3 187 852.2 187C850.9 187 849.3 188.4 848 190.6C845.6 194.3 844 194.7 846 191C846.6 189.8 847 188.7 846.8 188.6C846.6 188.5 845.7 187.8 844.8 187.1C843.2 185.9 842.9 186.1 841.9 188.6ZM834 195.8C834 197.3 831.2 200.5 830.5 199.8C829.7 199 831.8 195 833 195C833.6 195 834 195.4 834 195.8Z" fill="#E47F7F"/>
<path d="M773 187.6C764.7 190.4 761.6 193.5 766.1 194.7C767.8 195.2 768.1 195.8 767.6 198.4C767.3 200.1 766.8 207.1 766.4 214L765.7 226.6L768.3 227.7C770.4 228.7 771.1 228.6 772.8 226.7C776 223.3 781.8 210.2 783.1 203.3C785.4 191.8 781 185 773 187.6ZM779 196.9C779 203.2 776.1 213.9 772.7 220.5C769.8 226.1 769.5 223.7 771.4 207.7C773.2 191.9 773.5 191 776.6 191C778.9 191 779 191.3 779 196.9Z" fill="#E47F7F"/>
<path d="M855.1 193.3C852.4 200.1 852 204.4 853.9 206.3C854.8 207.2 855.5 207.2 857 206.3C858.5 205.3 858.1 206.7 855 213.5C852.2 219.6 851.5 222 852.5 222C853.3 222 855.1 220.5 856.5 218.6C859.4 214.8 867.6 195.1 868.1 190.6C868.6 186.5 866.4 186.2 865.1 190.2C864 193.6 858.1 201.5 857.3 200.7C857.1 200.4 857.9 198.1 859.2 195.6C860.9 192.1 861.2 190.5 860.4 189.3C858.5 186.2 857.5 187 855.1 193.3Z" fill="#E47F7F"/>
<path d="M891.6 188.8C891.3 189 891.1 197 891 206.5C890.9 221 891.2 224 892.5 225.4C893.7 226.5 894.7 226.7 896.5 226C899.4 224.9 908.9 225 909.6 226.2C909.9 226.7 910.6 226.7 911.2 226.4C911.8 226 914.9 225.8 918.1 225.9C922.8 226 924 225.8 924 224.5C924 223.3 922.7 223 917.5 223H911V206.5C911 192 911.2 190 912.8 189C914 188.3 911.5 188 903.2 188.2C897 188.3 891.8 188.5 891.6 188.8ZM909.8 206.8L910 223.9L906.8 223.8C905 223.8 901.4 223.5 898.8 223.3L894 222.8V206.5V190.1L900.8 189.8C904.5 189.6 908 189.5 908.5 189.5C909.1 189.6 909.6 196.3 909.8 206.8Z" fill="#E47F7F"/>
<path d="M924.4 206.5C924.4 215.3 924.6 218.8 924.7 214.2C924.9 209.6 924.9 202.4 924.7 198.2C924.6 194 924.4 197.7 924.4 206.5Z" fill="#E47F7F"/>
<path d="M935 194C935 194.5 935.5 195 936.1 195C936.6 195 936.8 194.5 936.5 194C936.2 193.4 935.7 193 935.4 193C935.2 193 935 193.4 935 194Z" fill="#E47F7F"/>
<path d="M657.2 195.9C657.1 196.7 655.5 199.3 653.8 201.6C650.2 206.3 644 210 639.7 210C635.7 210 630 207.3 626.3 203.8L623 200.6V203.8C623 206.8 622.8 207 619.5 207C616.4 207 615.5 207.6 612.8 211.5C609.9 215.6 608.9 216.2 601.1 218.6C585 223.5 574.9 230.4 570.6 239.2C567.8 245.1 564.8 259.1 563 274.8L561.8 285.2L564.5 288C566.8 290.4 568.1 290.8 573.8 291.2C581.4 291.6 588.9 295.2 587.1 297.4C586.5 298.1 585.8 300.4 585.6 302.6C585 307.1 586.8 314 588 312C588.5 311.3 588.6 310.1 588.3 309.4C588.1 308.8 588.3 307.9 588.9 307.5C589.5 307.2 590 306.3 590 305.7C590 305 589.6 305.1 589 306C588.4 306.9 588 307 588 306.3C588 305.7 588.4 304.9 588.8 304.6C589.3 304.3 589.6 302.7 589.5 301.1C589.4 299.4 589.7 298.3 590.2 298.6C590.6 298.9 591 300.5 591 302.2C591 304.8 591.2 305.1 592.5 304C593.7 303 594 303 594 304.1C594 304.9 594.4 309.2 595 313.8L595.9 322.1L603.7 330.6C611.3 338.8 613.3 341.6 611.2 340.9C610.7 340.7 599.1 328.3 585.5 313.5C572 298.6 559.7 285.7 558.2 284.8C556.3 283.5 553.6 283 549 283.1C541.4 283.2 536.9 284.2 538.8 285.4C541.5 287.1 539.6 287.8 530.4 288.5C521.7 289.1 520.7 289 518.7 287.2C516.8 285.5 515.6 285.3 509.3 285.7C505.3 286 502 286.6 502 286.9C502 287.2 507.6 293.1 514.5 300L527 312.5L532.8 312.2C537 312 539 312.3 540.5 313.5C541.6 314.4 542 314.9 541.5 314.6C540.9 314.4 538.6 315.7 536.5 317.6L532.5 321L535.5 320.4C537.2 320 539.8 319.1 541.3 318.3C544.3 316.8 546.5 317.4 544 319C542.7 319.8 542.8 320 544.3 320C545.2 320 546 319.5 546 319C546 317.6 547.3 317.8 549.5 319.4C551.8 321 550.9 322.1 544 326.3C540 328.8 539.8 329 542.5 328.4L545.5 327.8L542.6 329.4C541.1 330.3 539.4 330.8 539 330.5C538.5 330.2 537.8 330.4 537.5 331C537.1 331.6 535.1 332.8 532.9 333.7C530.8 334.5 529 335.6 529 336.2C529 336.7 529.5 336.8 530.2 336.4C530.9 336 531 336.1 530.6 336.9C530.1 337.6 529.4 337.8 528.7 337.2C528 336.7 526.7 336.3 525.7 336.3C524.1 336.3 524.1 336.5 525.6 338.1C526.5 339.1 527.6 339.7 528 339.5C528.4 339.2 528.7 339.8 528.6 340.7C528.3 344.9 537.3 343.3 543.2 338.1L547.5 334.2L553 339.5L558.6 344.7L577.3 344.2C593.5 343.8 596 343.9 596 345.2C596 346.6 590.7 376.2 589.5 381.7L589 384H644.5C682.8 384 700 383.7 700 382.9C700 382.4 699.5 379.8 698.8 377.3L697.7 372.7L689.3 373.4C682.4 374 681 373.9 681 372.7C681 370.7 677.2 317.3 676.5 308.9L675.9 302.2L683.4 301.8C687.5 301.6 691.1 301.2 691.4 300.9C691.7 300.6 692.4 296.6 692.9 291.9C694 282 696.9 270 698.1 270C698.6 270 706.4 273.3 715.6 277.2C727.4 282.4 732.4 285.1 733 286.6C733.4 287.7 735.4 290.1 737.4 291.8C740.6 294.6 741.8 295 746.8 295C750 295 753.1 295.5 753.8 296.2C754.7 297.1 755.3 297.1 756.1 296.3C756.9 295.5 756.6 294.6 755.1 293.1C753.9 291.9 753.5 291 754 291C756.3 291 741.3 275.5 738 274.5C736.9 274.2 736 273.4 736 272.9C736 272.3 735.6 272.2 735 272.5C733.4 273.5 733.8 269.4 736 262.9C738.4 255.9 740.8 251.8 742.1 252.6C742.6 252.9 743 252.6 743 252.1C743 251.5 742.4 251 741.7 251C740.9 251 739.6 250.2 738.7 249.2C737.2 247.6 737 244.4 737 225.7C737 205.7 736.9 204 735.3 204C734.3 204 732.9 204.4 732.2 204.9C731.1 205.6 731.2 205.8 732.5 206.3C733.9 206.9 734.1 208.9 733.9 221.5C733.8 235.1 733.7 236 731.9 236C730.1 236 729.5 234.5 729.9 231.2C730 230.6 729.6 230 729 230C728.5 230 728 227.8 728 225C728 219.7 726.6 218.5 723.6 221.5C722.8 222.3 721.5 223 720.8 223.1C720.1 223.1 720.5 223.5 721.8 224C723 224.5 724 225.5 724 226.2C724 227.1 723.7 227.1 722.8 226.2C721.1 224.5 719.9 224.7 720.6 226.5C721.1 227.8 720.8 227.9 718.5 227C717 226.4 714.1 224.7 712.1 223.1C705.7 218.1 698.8 215.3 687.1 213C672.8 210.3 668.7 208.8 664.4 205C662.5 203.4 660.3 202 659.5 202C658.6 202 658 200.6 657.7 198.2C657.5 196.2 657.3 195.1 657.2 195.9ZM735.7 205.6C735.4 205.9 734.5 206 733.8 205.7C733 205.4 733.3 205.1 734.4 205.1C735.5 205 736.1 205.3 735.7 205.6ZM735.7 228.7C735.6 233 735.4 229.7 735.4 221.5C735.4 213.2 735.6 209.7 735.7 213.7C735.9 217.7 735.9 224.4 735.7 228.7ZM641.5 210.5C650.5 210.6 655.8 210.3 656.2 209.6C656.7 209 657 209.4 657 210.6C657.1 219.8 637 224.3 625.5 217.6C619.6 214.1 618.3 211.6 621.2 209.6C622.9 208.4 623.7 208.3 625.4 209.3C626.7 210 632.9 210.5 641.5 210.5ZM552.2 326.6C551.4 328 551.2 328 550.7 326.1C550.4 324.9 550.6 324.2 551.1 324.6C551.6 324.9 552 324.5 552.1 323.8C552.1 322.9 552.3 322.8 552.6 323.7C552.9 324.4 552.7 325.7 552.2 326.6ZM547.3 328.5C547 329.4 546.5 329.9 546.3 329.6C546 329.3 546.1 328.7 546.5 328.1C547.4 326.5 548 326.8 547.3 328.5Z" fill="#E47F7F"/>
<path d="M943.1 209.7C944.7 215.6 946.2 221 946.5 221.7C946.8 222.7 944.8 223 938 223C930.5 223 929 223.3 929 224.6C929 225.4 929.4 225.9 929.9 225.6C930.4 225.2 932.1 225.5 933.6 226C935.7 226.8 936.5 226.8 937.2 225.8C937.7 224.9 938 224.9 938 225.7C938 226.5 938.9 226.6 941.2 225.9C945.3 224.8 945.3 224.8 944.5 226C944.2 226.5 944.5 226.7 945.4 226.4C946.2 226.1 947.1 225.3 947.3 224.5C947.9 223 941.8 199 940.8 199C940.5 199 941.5 203.8 943.1 209.7Z" fill="#E47F7F"/>
<path d="M865 208C865 209.1 865.7 210 866.5 210C867.3 210 868 209.1 868 208C868 206.9 867.3 206 866.5 206C865.7 206 865 206.9 865 208Z" fill="#E47F7F"/>
<path d="M732.3 224C732.3 228.7 732.5 230.6 732.7 228.2C732.9 225.9 732.9 222.1 732.7 219.7C732.5 217.4 732.3 219.3 732.3 224Z" fill="#E47F7F"/>
<path d="M935.5 228.9C935.2 229.4 935.4 230.1 936 230.5C936.5 230.8 937 230.4 937 229.6C937 227.8 936.4 227.5 935.5 228.9Z" fill="#E47F7F"/>
<path d="M922 234C922 236.9 922.4 238 923.3 237.7C923.9 237.5 924.5 235.8 924.5 234C924.5 232.2 923.9 230.5 923.3 230.2C922.4 230 922 231.1 922 234Z" fill="#E47F7F"/>
<path d="M957 244C957 244.5 957.5 245 958 245C958.6 245 959 244.5 959 244C959 243.4 958.6 243 958 243C957.5 243 957 243.4 957 244Z" fill="#E47F7F"/>
<path d="M961 244.6C961 245.4 961.5 245.8 962 245.5C962.6 245.2 963 244.5 963 243.9C963 243.4 962.6 243 962 243C961.5 243 961 243.7 961 244.6Z" fill="#E47F7F"/>
<path d="M800.5 254.8C794.1 258.8 789 268.1 789 275.8C789 278.1 788.9 278.1 780 277.8C775 277.6 771 277.7 771 278C771 279.6 773.8 281 777.1 281C780.5 281 780.8 281.3 782.4 285.3C784.4 290.7 788.7 294.9 793.1 295.9C799.5 297.3 810.7 296.3 814.4 294C817.6 292.1 822 285.1 822 282.2C822 281.3 825.1 281 832.5 281C839 281 843 280.6 843 280C843 279.3 847.5 279 855.7 279.2L868.4 279.5L869.3 283C871.4 291.3 876.6 295 886.1 295C893.6 295 897.6 292.5 901 285.5L903.2 280.9L913.2 281.2L923.2 281.5L924.6 285.5C925.3 287.7 927.5 291 929.4 292.7C932.8 295.9 933.3 296 941.1 296H949.3L953.1 292C957.3 287.6 959.3 282 958.9 275.9C958.7 273.8 958.9 271.8 959.3 271.4C960.3 270.3 960.1 265 959.1 265C958.5 265 957.3 263.6 956.3 261.9C953.8 257.7 947.7 254.6 943.3 255.5C938.4 256.4 933.3 261.4 929.4 269.2C927.1 273.8 925.1 276.4 923.4 277C920 278.3 827.7 277.9 826.8 276.5C826.4 276 826 274.1 826 272.5C826 267.8 821.6 259.6 817.5 256.5C812.7 252.8 804.9 252 800.5 254.8ZM947.5 268.6C951.6 270.2 953.2 278.7 950.5 284C947.8 289.3 940.2 289.3 937.5 284C934.8 278.8 936.2 271.7 940.4 268.8C941.7 267.9 945.3 267.8 947.5 268.6ZM810 270C811.9 271 814.3 276.7 813.4 278.1C813.1 278.6 813.3 279 813.9 279C814.4 279 815 278.4 815.3 277.7C815.5 277.1 815.5 277.8 815.3 279.5C814.5 284.7 811.8 287.5 807.5 287.5C802 287.5 799.2 283.2 799.9 276C800.1 273.9 804.8 269 806.6 269C807.4 269 809 269.4 810 270Z" fill="#E47F7F"/>
<path d="M942.5 271C942.2 271.5 942.4 272 942.9 272C943.5 272 944 271.5 944 271C944 270.4 943.8 270 943.6 270C943.3 270 942.8 270.4 942.5 271Z" fill="#E47F7F"/>
<path d="M948.9 272.7C950.6 276.1 950.2 280.5 947.9 283.4C945.5 286.4 943.4 286.7 940 284.3L937.5 282.6L939.4 284.8C942.1 287.9 946.3 287.7 948.9 284.4C951.4 281.2 951.7 275.2 949.4 272.4C947.9 270.6 947.9 270.6 948.9 272.7Z" fill="#E47F7F"/>
<path d="M938.5 274C938.2 274.5 938.4 275 938.9 275C939.5 275 940 274.5 940 274C940 273.4 939.8 273 939.6 273C939.3 273 938.8 273.4 938.5 274Z" fill="#E47F7F"/>
<path d="M942.5 283C942.2 283.5 942.4 284 942.9 284C943.5 284 944 283.5 944 283C944 282.4 943.8 282 943.6 282C943.3 282 942.8 282.4 942.5 283Z" fill="#E47F7F"/>
<path d="M806 271C806 271.5 806.5 272 807.1 272C807.6 272 807.8 271.5 807.5 271C807.2 270.4 806.7 270 806.4 270C806.2 270 806 270.4 806 271Z" fill="#E47F7F"/>
<path d="M802 274.6C802 275.4 802.5 275.8 803 275.5C803.6 275.1 803.8 274.4 803.5 273.9C802.6 272.5 802 272.8 802 274.6Z" fill="#E47F7F"/>
<path d="M810 274C810 274.5 810.5 275 811.1 275C811.6 275 811.8 274.5 811.5 274C811.2 273.4 810.7 273 810.4 273C810.2 273 810 273.4 810 274Z" fill="#E47F7F"/>
<path d="M804 277.9C804 278.5 804.4 279.2 805 279.5C805.6 279.8 805.7 279.4 805.4 278.6C804.7 276.8 804 276.5 804 277.9Z" fill="#E47F7F"/>
<path d="M802 280C802 280.5 802.5 281 803.1 281C803.6 281 803.8 280.5 803.5 280C803.2 279.4 802.7 279 802.4 279C802.2 279 802 279.4 802 280Z" fill="#E47F7F"/>
<path d="M812.1 282.7C811.1 285.3 811.1 285.4 812.5 283.6C813.3 282.5 814 281.3 814 280.8C814 279.3 813.3 280 812.1 282.7Z" fill="#E47F7F"/>
<path d="M806 283C806 283.5 806.5 284 807.1 284C807.6 284 807.8 283.5 807.5 283C807.2 282.4 806.7 282 806.4 282C806.2 282 806 282.4 806 283Z" fill="#E47F7F"/>
<path d="M758 302.4C758 303.3 758.5 304 759 304C759.6 304 760 303.6 760 303.1C760 302.5 759.6 301.8 759 301.5C758.5 301.2 758 301.6 758 302.4Z" fill="#E47F7F"/>
<path d="M759.3 308.5C759.3 310.7 759.5 311.5 759.7 310.2C759.9 309 759.9 307.2 759.7 306.2C759.4 305.3 759.2 306.3 759.3 308.5Z" fill="#E47F7F"/>
<path d="M762.3 319.6C760.5 320 760 320.8 760.1 323.3C760.2 328.3 761.7 336.9 761.9 333.7C762 331.3 762.3 331 764.1 331.5C766 332.1 768.1 331.3 775 327.4C776.9 326.4 777.1 326 775.8 326C773.6 326 773.5 325.1 775.5 323.6C778 321.7 775.6 319.9 769.9 319.5C766.9 319.3 763.5 319.4 762.3 319.6Z" fill="#E47F7F"/>
<path d="M762.1 340.6C762.1 341.7 762.4 342 762.7 341.2C763 340.5 762.9 339.6 762.6 339.3C762.3 338.9 762 339.5 762.1 340.6Z" fill="#E47F7F"/>
<path d="M766.5 351C765.5 352.1 764.3 352.7 763.8 352.4C763.2 352 763.1 355.2 763.5 360.9L764.3 370L755.9 370.1C751.3 370.1 746.6 370.5 745.5 370.9C742.1 372.3 750.3 374 760.2 374C768.9 374 771.2 373.1 769.1 370.6C768.5 369.9 768.3 369 768.7 368.7C769 368.3 768.8 368 768.2 368C767.5 368 766.9 368.6 766.9 369.2C766.8 369.9 766.4 368.7 766 366.5C765.4 363.5 765.7 360.8 767.1 356.1C768.2 352.6 768.9 349.5 768.7 349.3C768.5 349.1 767.5 349.9 766.5 351ZM769 371.4C769 371.7 768.6 372.2 768 372.5C767.5 372.8 767 372.6 767 372.1C767 371.5 767.5 371 768 371C768.6 371 769 371.2 769 371.4Z" fill="#E47F7F"/>
<path d="M771.6 370.7C771 372.1 771.1 372.2 772.1 371.3C772.8 370.6 773.1 369.8 772.8 369.5C772.5 369.2 771.9 369.7 771.6 370.7Z" fill="#E47F7F"/>
</svg>
